<svg id="cart" viewBox="0 0 30 30" xmlns="http://www.w3.org/2000/svg"><g><path d="M9.727 19.395h15.879c.393 0 .738-.26.844-.638l3.516-12.305a.878.878 0 00-.845-1.12H7.698l-.629-2.827a.879.879 0 00-.858-.688H.879a.879.879 0 100 1.757h4.627l3.173 14.283a2.638 2.638 0 00-1.59 2.417 2.64 2.64 0 002.638 2.636h15.879a.878.878 0 100-1.757H9.726a.88.88 0 010-1.758zM8.848 25.547a2.64 2.64 0 002.636 2.637 2.64 2.64 0 002.637-2.637 2.64 2.64 0 00-2.636-2.637 2.64 2.64 0 00-2.637 2.637zM21.21 25.547a2.64 2.64 0 002.637 2.637 2.64 2.64 0 002.637-2.637 2.64 2.64 0 00-2.637-2.637 2.64 2.64 0 00-2.636 2.637z"/></g></svg>