<svg width="40" height="40" viewBox="0 0 40 40" fill="none" xmlns="http://www.w3.org/2000/svg">
<path d="M39.375 14.375C39.375 14.0944 39.1831 7.5 22.5 7.5C15.0437 7.5 6.9925 13.4812 3.57625 17.7919C0.689375 19.6275 0.625 21.7194 0.625 21.875C0.625 22.7894 1.28375 23.5506 2.15125 23.715C1.97187 24.3325 1.875 24.9706 1.875 25.625C1.875 29.4156 4.95937 32.5 8.75 32.5H27.5C28.4719 32.5 29.4056 32.2931 30.2831 31.9025C31.6075 32.2925 32.9844 32.5 34.375 32.5C36.4431 32.5 38.125 30.8181 38.125 28.75C38.125 27.6306 36.9862 25.7844 35.115 23.8031C36.9869 22.5312 38.125 20.4269 38.125 18.125C38.125 17.4706 38.0281 16.8325 37.8494 16.215C38.7162 16.0506 39.375 15.2894 39.375 14.375ZM11.73 12.3987C12.4212 12.9312 12.9531 13.49 13.2938 14.0681L14.3706 13.4319C14.0162 12.8319 13.5137 12.2575 12.8781 11.7144C14.0637 11.0406 15.3013 10.4462 16.5638 9.96625C17.7219 10.6912 19.375 12.0269 19.375 13.75H20.625C20.625 11.8612 19.2863 10.41 18.0375 9.46563C19.5287 9.02 21.0331 8.75 22.5 8.75C22.7156 8.75 22.9169 8.755 23.1269 8.7575C24.0044 9.46375 25 10.5531 25 11.875H26.25C26.25 10.8125 25.8088 9.77125 24.9744 8.805C31.9888 9.1175 35.2644 10.75 36.7913 12.1687C36.6863 12.365 36.4844 12.5 36.25 12.5C30.7394 12.5 25.31 13.42 20.1069 15.2287C19.2369 15.0831 18.3656 15 17.5 15C12.5163 15 9.0125 15.5906 6.53813 16.4231C7.96438 15.055 9.74937 13.64 11.73 12.3987ZM26.4037 18.7913C25.1663 19.7144 23.75 21.1919 23.75 23.125H25C25 21.4838 26.5188 20.19 27.6113 19.47C28.7669 20.1581 29.8594 20.9119 30.8638 21.6881C29.8781 22.7244 29.375 23.835 29.375 25H30.625C30.625 24.1419 31.0344 23.2931 31.8406 22.4725C34.6188 24.7925 36.525 27.1637 36.8281 28.4262C36.4562 28.6362 36.0469 28.75 35.625 28.75C33.2819 28.75 30.9744 28.1263 28.9506 26.9456L28.5269 26.6981C21.015 22.3162 12.4469 20 3.75 20C3.51562 20 3.31375 19.865 3.20875 19.6687C4.6375 18.3419 7.59438 16.8269 13.7131 16.3806C12.9206 17.325 12.5 18.3394 12.5 19.375H13.75C13.75 18.07 14.7169 16.995 15.5912 16.285C16.2031 16.2644 16.8325 16.25 17.5 16.25C18.6869 16.25 19.8869 16.4138 21.0769 16.7025C19.73 17.6363 18.125 19.1819 18.125 21.25H19.375C19.375 19.2675 21.5438 17.8038 22.69 17.1687C23.9613 17.5962 25.2075 18.1531 26.4037 18.7913ZM27.5 31.25H8.75C5.64813 31.25 3.125 28.7269 3.125 25.625C3.125 24.9831 3.23625 24.3606 3.44563 23.7656C11.5956 23.9269 19.5988 26.1663 26.6475 30.2775L27.0712 30.525C27.4862 30.7669 27.9144 30.98 28.3494 31.1794C28.07 31.2213 27.7881 31.25 27.5 31.25ZM34.375 31.25C32.0319 31.25 29.7244 30.6263 27.7006 29.4456L27.2769 29.1981C19.765 24.8162 11.1969 22.5 2.5 22.5C2.155 22.5 1.875 22.22 1.875 21.875C1.875 21.8581 1.91625 21.345 2.37813 20.6369C2.72125 21.0113 3.20687 21.25 3.75 21.25C12.2262 21.25 20.5763 23.5069 27.8975 27.7775L28.3212 28.025C30.535 29.3169 33.0606 30 35.625 30C35.96 30 36.2875 29.9438 36.6063 29.8556C36.1963 30.6781 35.355 31.25 34.375 31.25ZM34.2144 22.8912C32.2069 20.9587 29.5731 18.9844 26.6663 17.4937C29.91 16.7413 33.2244 16.3319 36.5544 16.2662C36.7637 16.8612 36.875 17.4838 36.875 18.125C36.875 20.0863 35.8612 21.8675 34.2144 22.8912ZM37.5 15C33.2381 15 28.9912 15.5581 24.8719 16.6531C24.0787 16.3169 23.2706 16.0256 22.4556 15.7812C26.9306 14.435 31.56 13.75 36.25 13.75C36.7931 13.75 37.2788 13.5112 37.6219 13.1369C38.0838 13.845 38.125 14.3581 38.125 14.375C38.125 14.72 37.845 15 37.5 15Z" fill="white"/>
<path d="M5.625 25.6249C5.625 25.4493 5.63938 25.2737 5.66813 25.1031L4.435 24.8956C4.395 25.1349 4.375 25.3799 4.375 25.6249C4.375 28.0368 6.33812 29.9999 8.75 29.9999H10V28.7499H8.75C7.02688 28.7499 5.625 27.3481 5.625 25.6249Z" fill="white"/>
<path d="M11.25 28.75H12.5V30H11.25V28.75Z" fill="white"/>
<path d="M13.75 28.75H15V30H13.75V28.75Z" fill="white"/>
<path d="M30.1782 17.9435L31.062 17.0597L31.687 17.6846L30.8031 18.5685L30.1782 17.9435Z" fill="white"/>
<path d="M32.6774 19.5596L33.3023 18.9347L34.1862 19.8186L33.5613 20.4435L32.6774 19.5596Z" fill="white"/>
<path d="M33.9274 17.9434L34.8113 17.0595L35.4362 17.6845L34.5523 18.5683L33.9274 17.9434Z" fill="white"/>
</svg>
