<svg id="sushi" viewBox="0 0 40 40" xmlns="http://www.w3.org/2000/svg">
<g>
<path d="M38.855 27.9996L30.3811 19.0359L22.8868 0.324821C22.7889 0.0799115 22.495 -0.0670345 22.2501 0.0309295C22.0052 0.128893 21.8582 0.422785 21.9562 0.667695L28.5198 17.1256L14.1681 1.99021C13.9721 1.79428 13.6782 1.79428 13.4823 1.99021C13.2864 2.18614 13.2864 2.48003 13.4823 2.67596L29.5484 19.6237L36.014 35.8857C36.112 36.0817 36.2589 36.1796 36.4548 36.1796C36.5038 36.1796 36.5528 36.1796 36.6508 36.1306C36.8957 36.0327 37.0426 35.7388 36.9447 35.4939L31.3607 21.485L38.1692 28.6364C38.2672 28.7344 38.4141 28.7833 38.5121 28.7833C38.6101 28.7833 38.757 28.7344 38.855 28.6364C39.0019 28.4895 39.0509 28.1956 38.855 27.9996Z" />
<path d="M9.22017 25.6486C7.21191 25.6486 5.54652 27.3139 5.54652 29.3222C5.54652 31.3305 7.21191 32.9959 9.22017 32.9959C11.2284 32.9959 12.8938 31.3305 12.8938 29.3222C12.8938 27.3139 11.2774 25.6486 9.22017 25.6486ZM7.11394 30.9876C6.77107 30.5468 6.52616 29.959 6.52616 29.3222C6.52616 28.6854 6.77107 28.0977 7.11394 27.6568V30.9876ZM8.73035 31.9672C8.48544 31.9183 8.28951 31.8693 8.09358 31.7713V26.8731C8.28951 26.7751 8.48544 26.7262 8.73035 26.6772V31.9672ZM10.3468 31.7713C10.1508 31.8693 9.9549 31.9183 9.70999 31.9672V26.6772C9.9549 26.7262 10.1508 26.7751 10.3468 26.8731V31.7713ZM11.3264 30.9876V27.6568C11.6693 28.0977 11.9142 28.6854 11.9142 29.3222C11.9632 29.959 11.7182 30.5468 11.3264 30.9876Z" />
<path d="M24.6495 18.1052L20.486 13.9417C19.8003 13.256 18.8696 12.8641 17.89 12.8641C16.9103 12.8641 15.9797 13.256 15.2939 13.9417L11.0815 18.1052C9.85694 19.3297 9.66101 21.289 10.6407 22.7095H6.28126C4.27299 22.7095 2.65659 24.3259 2.65659 26.3342V32.261C2.65659 34.2692 4.27299 35.8857 6.28126 35.8857H12.2081C14.2163 35.8857 15.8327 34.2692 15.8327 32.261V27.9016C16.4205 28.2934 17.1063 28.4894 17.841 28.4894C18.8206 28.4894 19.7513 28.0975 20.437 27.4118L24.6495 23.2483C26.07 21.8278 26.07 19.5257 24.6495 18.1052ZM14.8531 32.261C14.8531 33.7304 13.6775 34.906 12.2081 34.906H6.28126C4.8118 34.906 3.63623 33.7304 3.63623 32.261V26.3831C3.63623 24.9137 4.8118 23.7381 6.28126 23.7381H12.2081C13.6775 23.7381 14.8531 24.9137 14.8531 26.3831V32.261ZM23.9637 22.6115L19.8003 26.775C19.2615 27.2648 18.5757 27.5587 17.89 27.5587C17.1553 27.5587 16.5185 27.2648 15.9797 26.775L15.8327 26.6281V26.3831C15.8327 24.3749 14.2163 22.7585 12.2081 22.7585H11.9632L11.8162 22.6115C10.7876 21.5829 10.7876 19.8685 11.8162 18.8399L15.9797 14.6765C16.4695 14.1866 17.1553 13.8927 17.89 13.8927C18.6247 13.8927 19.2615 14.1866 19.8003 14.6765L23.9637 18.8399C24.9924 19.8685 24.9924 21.5829 23.9637 22.6115Z"/>
<path d="M20.486 18.1055C19.0165 16.636 16.7144 16.636 15.2939 18.1055C14.6082 18.7912 14.2163 19.7219 14.2163 20.7015C14.2163 21.6812 14.6082 22.6118 15.2939 23.2976C15.9797 23.9833 16.9103 24.3752 17.89 24.3752C18.8696 24.3752 19.8002 23.9833 20.486 23.2976C21.1717 22.6118 21.5636 21.6812 21.5636 20.7015C21.5636 19.7219 21.1717 18.7912 20.486 18.1055ZM15.9797 22.6118C15.5388 22.171 15.2939 21.6322 15.1959 21.0444L17.5471 23.3955C16.9593 23.2976 16.4205 23.0527 15.9797 22.6118ZM18.8206 23.1996L15.3429 19.7219C15.4409 19.526 15.5388 19.33 15.6368 19.1341L19.4084 22.9057C19.2125 23.0527 19.0165 23.1506 18.8206 23.1996ZM20.0941 22.22L16.3715 18.4973C16.5674 18.3504 16.7634 18.2524 16.9593 18.2034L20.437 21.6812C20.339 21.8281 20.2411 22.024 20.0941 22.22ZM18.1838 18.0075C18.7716 18.0565 19.3104 18.3014 19.7513 18.7422C20.1921 19.1831 20.437 19.7219 20.535 20.3097L18.1838 18.0075Z"/>
<path d="M11.8655 9.09182L8.82863 6.05494C7.75103 4.97733 5.98768 4.97733 4.86109 6.05494L1.82421 9.09182C0.746604 10.1694 0.746604 11.9328 1.82421 13.0594L4.86109 16.0962C5.44887 16.635 6.13462 16.9289 6.86935 16.9289C7.60408 16.9289 8.28983 16.635 8.82863 16.0962L11.8655 13.0594C12.9431 11.9818 12.9431 10.2184 11.8655 9.09182ZM11.1308 12.3736L8.14288 15.4105C7.45713 16.0962 6.28157 16.0962 5.59582 15.4105L2.55894 12.3736C1.82421 11.6389 1.82421 10.5123 2.50995 9.82655L5.54684 6.78967C5.88971 6.44679 6.37953 6.25087 6.82037 6.25087C7.26121 6.25087 7.75103 6.44679 8.0939 6.78967L11.1308 9.82655C11.8165 10.5123 11.8165 11.6879 11.1308 12.3736Z" />
<path d="M8.82913 9.09158C8.29033 8.55277 7.60458 8.25888 6.82087 8.25888C6.08614 8.25888 5.35141 8.55277 4.8126 9.09158C3.735 10.1692 3.735 11.9815 4.8126 13.0591C5.35141 13.5979 6.03715 13.8918 6.82087 13.8918C7.60458 13.8918 8.33931 13.5979 8.82913 13.0591C9.90673 11.9815 9.90673 10.1692 8.82913 9.09158ZM5.54733 9.77732C5.89021 9.43445 6.33105 9.23852 6.82087 9.23852C7.16374 9.23852 7.45763 9.33649 7.70254 9.48343L5.20446 11.9815C4.86159 11.2958 4.95955 10.3651 5.54733 9.77732ZM8.19236 12.3734C7.60458 12.9612 6.67392 13.0591 5.98817 12.6673L8.48625 10.1692C8.87811 10.8549 8.78014 11.7856 8.19236 12.3734Z" />
<path d="M29.6951 32.1629L26.7072 29.126C25.6296 28.0484 23.8662 28.0484 22.7396 29.126L19.7027 32.1629C18.6251 33.2405 18.6251 35.0039 19.7027 36.1304L22.7396 39.1673C23.2784 39.7061 24.0132 40 24.6989 40C25.4336 40 26.1194 39.7061 26.6582 39.1673L29.6951 36.1304C30.7727 35.0528 30.7727 33.2895 29.6951 32.1629ZM29.0583 35.4447L26.0214 38.4816C25.3357 39.1673 24.1601 39.1673 23.4744 38.4816L20.4375 35.4447C19.7517 34.759 19.7517 33.5834 20.4375 32.8976L23.4744 29.8608C23.8172 29.5179 24.307 29.322 24.7479 29.322C25.1887 29.322 25.6785 29.5179 26.0214 29.8608L29.0583 32.8976C29.793 33.5834 29.793 34.71 29.0583 35.4447Z" />
<path d="M26.7559 32.2121C25.6293 31.0856 23.866 31.0856 22.7394 32.1632C22.2006 32.702 21.9067 33.3877 21.9067 34.1714C21.9067 34.9061 22.2006 35.6409 22.7394 36.1797C23.2782 36.7185 24.0129 37.0124 24.7476 37.0124C25.4824 37.0124 26.1681 36.7185 26.7559 36.1797C27.8335 35.1021 27.8335 33.2897 26.7559 32.2121ZM22.9353 34.1714C22.9353 33.6816 23.1312 33.2408 23.4741 32.8979C23.817 32.555 24.3068 32.3591 24.7476 32.3591C25.0415 32.3591 25.3844 32.4571 25.6293 32.604L23.1312 35.1021C22.9843 34.7592 22.9353 34.4653 22.9353 34.1714ZM26.0212 35.445C25.4334 36.0327 24.5517 36.1307 23.817 35.7388L26.3151 33.2408C26.7069 33.9265 26.609 34.8572 26.0212 35.445Z"/>
</g>
</svg>
