<svg id="vk" viewBox="0 0 20 20" xmlns="http://www.w3.org/2000/svg"><g><path d="M19.822 14.473c-.054-.09-.387-.813-1.987-2.298-1.675-1.555-1.45-1.303.568-3.992 1.229-1.637 1.72-2.637 1.566-3.065-.146-.407-1.05-.3-1.05-.3l-3.005.018s-.223-.03-.389.068c-.161.098-.265.323-.265.323s-.476 1.268-1.111 2.345c-1.34 2.274-1.875 2.394-2.094 2.253-.509-.329-.381-1.323-.381-2.028 0-2.204.333-3.123-.652-3.36-.327-.079-.567-.131-1.404-.14-1.072-.011-1.981.004-2.495.255-.342.167-.606.541-.445.562.199.027.649.122.888.447.308.419.297 1.361.297 1.361s.178 2.594-.414 2.917c-.406.22-.962-.23-2.156-2.294-.611-1.057-1.074-2.226-1.074-2.226s-.089-.217-.247-.333a1.246 1.246 0 00-.463-.187l-2.858.018s-.428.012-.586.199c-.14.166-.011.509-.011.509s2.238 5.234 4.77 7.873c2.324 2.418 4.962 2.26 4.962 2.26h1.195s.361-.04.545-.239c.17-.183.164-.525.164-.525s-.024-1.604.721-1.84c.734-.233 1.676 1.55 2.675 2.236.755.519 1.33.405 1.33.405l2.67-.037s1.398-.086.736-1.185z" /></g></svg>