<svg width="40" height="40" viewBox="0 0 40 40" fill="none" xmlns="http://www.w3.org/2000/svg">
<path d="M10.3227 17.7549H3.87387V19.0462H10.3227V17.7549Z" fill="white"/>
<path d="M13.5511 21.6296H3.87387V22.9209H13.5511V21.6296Z" fill="white"/>
<path d="M27.1024 25.5035H3.87387V26.7948H27.1024V25.5035Z" fill="white"/>
<path d="M7.74792 29.3691H3.87387V30.6605H7.74792V29.3691Z" fill="white"/>
<path d="M14.1973 29.3691H10.3233V30.6605H14.1973V29.3691Z" fill="white"/>
<path d="M20.6541 29.3691H16.78V30.6605H20.6541V29.3691Z" fill="white"/>
<path d="M26.4565 17.1093C25.9841 17.1093 25.551 17.2432 25.1731 17.4637C24.7794 17.2353 24.3384 17.1093 23.8738 17.1093C22.4486 17.1093 21.2911 18.2668 21.2911 19.692C21.2911 21.1173 22.4486 22.2747 23.8738 22.2747C24.3384 22.2747 24.7794 22.1488 25.1731 21.9204C25.551 22.1409 25.9841 22.2747 26.4565 22.2747C27.8817 22.2747 29.0392 21.1173 29.0392 19.692C29.0392 18.2668 27.8817 17.1093 26.4565 17.1093ZM24.2045 20.9361C24.0943 20.9676 23.9841 20.9834 23.8738 20.9834C23.1652 20.9834 22.5825 20.4007 22.5825 19.692C22.5825 18.9834 23.1652 18.4007 23.8738 18.4007C23.9841 18.4007 24.1022 18.4243 24.2045 18.4479C23.9998 18.818 23.8738 19.2353 23.8738 19.692C23.8738 20.1487 23.9998 20.5661 24.2045 20.9361ZM26.4565 20.9834C25.7479 20.9834 25.1652 20.4007 25.1652 19.692C25.1652 18.9834 25.7479 18.4007 26.4565 18.4007C27.1652 18.4007 27.7479 18.9834 27.7479 19.692C27.7479 20.4007 27.1652 20.9834 26.4565 20.9834Z" fill="white"/>
<path d="M38.6538 14.1251L11.5828 5.5738C11.3938 5.51081 9.88196 5.01474 9.15755 6.83366L6.92918 13.881H1.93702C0.866148 13.8888 0 14.755 0 15.818V32.5976C0 33.6685 0.866148 34.5347 1.93702 34.5347H30.3309C31.0081 34.5347 31.5987 34.1882 31.9451 33.6606C31.9451 33.6606 32.8191 33.9047 33.016 33.9047C33.8664 33.9047 34.6065 33.3614 34.8585 32.5504L39.9137 16.5503C40.0712 16.0621 40.1814 14.5345 38.6538 14.1251ZM9.60637 9.68407L22.9057 13.881H14.3308L8.82683 12.1408L9.60637 9.68407ZM8.44101 13.377L10.0552 13.8888H8.28352L8.44101 13.377ZM30.9766 32.5976H30.9687C30.9687 32.952 30.6774 33.2433 30.3231 33.2433H1.93702C1.58269 33.2433 1.29135 32.952 1.29135 32.5976V15.818C1.29135 15.4636 1.58269 15.1723 1.93702 15.1723H30.3309C30.6853 15.1723 30.9766 15.4636 30.9766 15.818V32.5976ZM33.6302 32.1646C33.5278 32.4953 33.1498 32.6921 32.8191 32.5819L32.2601 32.4087V20.9046L36.7404 22.322L33.6302 32.1646ZM37.1263 21.0857L32.2601 19.5503V16.8416L37.9058 18.6212L37.1263 21.0857ZM38.6853 16.1644L38.2995 17.3928L32.2286 15.4794C32.0632 14.5739 31.2758 13.8888 30.3309 13.8888H27.1892L9.9922 8.45572L10.378 7.22736C10.4804 6.89665 10.8505 6.6998 11.1891 6.81003L38.2601 15.3534C38.8034 15.4951 38.7326 15.9991 38.6853 16.1644Z" fill="white"/>
</svg>
