<svg width="333" height="452" viewBox="0 0 333 452" fill="none" xmlns="http://www.w3.org/2000/svg">
<path d="M452.65 226C452.65 225.317 452.647 224.634 452.641 223.952L452.141 223.957C452.117 221.235 452.044 218.525 451.924 215.828L452.423 215.805C452.363 214.444 452.29 213.086 452.205 211.731L451.706 211.763C451.536 209.049 451.318 206.348 451.053 203.662L451.55 203.612C451.416 202.255 451.27 200.902 451.112 199.552L450.616 199.61C450.3 196.911 449.936 194.227 449.525 191.559L450.019 191.483C449.811 190.135 449.592 188.79 449.361 187.45L448.868 187.535C448.406 184.858 447.896 182.196 447.34 179.552L447.829 179.449C447.549 178.116 447.256 176.787 446.952 175.462L446.465 175.574C445.857 172.926 445.203 170.296 444.502 167.684L444.985 167.555C444.633 166.24 444.268 164.929 443.893 163.624L443.412 163.762C442.661 161.152 441.863 158.561 441.02 155.99L441.495 155.834C441.072 154.541 440.636 153.254 440.19 151.972L439.718 152.136C438.825 149.571 437.886 147.027 436.904 144.504L437.369 144.323C436.876 143.056 436.371 141.795 435.856 140.54L435.393 140.73C434.361 138.217 433.285 135.728 432.166 133.262L432.621 133.055C432.059 131.818 431.487 130.587 430.903 129.361L430.452 129.576C429.285 127.124 428.074 124.697 426.822 122.295L427.265 122.064C426.637 120.859 425.998 119.661 425.349 118.47L424.91 118.709C423.611 116.325 422.271 113.966 420.889 111.635L421.319 111.38C420.626 110.211 419.923 109.049 419.21 107.893L418.784 108.156C417.359 105.847 415.893 103.565 414.387 101.313L414.802 101.035C414.047 99.9047 413.281 98.7818 412.506 97.6661L412.096 97.9514C410.548 95.7238 408.961 93.5254 407.335 91.3573L407.735 91.0574C406.92 89.9696 406.094 88.8894 405.26 87.8169L404.865 88.124C403.2 85.9835 401.496 83.8738 399.755 81.796L400.139 81.4749C399.266 80.433 398.384 79.3991 397.493 78.3734L397.115 78.7013C395.337 76.654 393.522 74.6391 391.672 72.6575L392.037 72.3163C391.11 71.3231 390.173 70.3383 389.228 69.362L388.869 69.7097C386.983 67.7615 385.063 65.8471 383.108 63.9677L383.455 63.6073C382.475 62.6655 381.487 61.7325 380.491 60.8083L380.151 61.1749C378.163 59.3313 376.143 57.5231 374.089 55.7513L374.416 55.3727C373.387 54.485 372.35 53.6064 371.306 52.737L370.986 53.1213C368.902 51.3878 366.787 49.691 364.641 48.032L364.947 47.6365C363.872 46.8053 362.789 45.9836 361.699 45.1716L361.4 45.5726C359.227 43.9541 357.024 42.3739 354.791 40.8328L355.075 40.4213C353.957 39.6496 352.832 38.8877 351.699 38.1357L351.423 38.5523C349.165 37.0534 346.879 35.594 344.566 34.1751L344.827 33.7489C343.67 33.0391 342.506 32.3395 341.335 31.65L341.081 32.0809C338.746 30.7061 336.384 29.3721 333.996 28.0798L334.234 27.6401C333.04 26.9944 331.841 26.3591 330.634 25.7344L330.405 26.1783C327.999 24.9324 325.568 23.7284 323.113 22.5674L323.327 22.1154C322.1 21.5353 320.868 20.9658 319.629 20.4073L319.423 20.863C316.955 19.7499 314.463 18.6798 311.948 17.6537L312.137 17.1907C310.88 16.678 309.618 16.1762 308.35 15.6855L308.17 16.1518C305.645 15.1749 303.099 14.2421 300.532 13.3542L300.695 12.8816C299.412 12.4378 298.124 12.0053 296.83 11.584L296.675 12.0595C294.103 11.2218 291.511 10.429 288.898 9.6821L289.036 9.20137C287.73 8.82789 286.419 8.46585 285.103 8.11535L284.975 8.5985C282.362 7.90249 279.731 7.25212 277.082 6.64829L277.193 6.1608C275.868 5.85871 274.538 5.56825 273.204 5.28952L273.102 5.77895C270.457 5.22637 267.796 4.72001 265.118 4.26078L265.202 3.76797C263.862 3.53806 262.517 3.31994 261.168 3.1137L261.093 3.60796C258.424 3.19984 255.74 2.83841 253.041 2.52452L253.099 2.02787C251.749 1.87086 250.395 1.72572 249.038 1.59256L248.989 2.09017C246.302 1.82651 243.602 1.60991 240.888 1.44121L240.919 0.942173C239.564 0.857953 238.206 0.785644 236.845 0.725349L236.823 1.22486C234.125 1.10536 231.415 1.03315 228.694 1.00905L228.698 0.509066C228.016 0.503026 227.333 0.5 226.65 0.5C225.967 0.5 225.284 0.503026 224.602 0.509064L224.607 1.00904C221.885 1.03315 219.175 1.10535 216.478 1.22485L216.456 0.725342C215.094 0.785636 213.736 0.857945 212.382 0.942164L212.413 1.4412C209.699 1.6099 206.998 1.8265 204.311 2.09016L204.262 1.59255C202.905 1.72571 201.552 1.87084 200.202 2.02785L200.259 2.5245C197.561 2.83839 194.876 3.19982 192.208 3.60794L192.132 3.11368C190.783 3.31991 189.439 3.53804 188.098 3.76795L188.183 4.26075C185.505 4.71999 182.843 5.22634 180.198 5.77893L180.096 5.2895C178.762 5.56822 177.432 5.85869 176.107 6.16077L176.218 6.64827C173.569 7.25209 170.938 7.90246 168.326 8.59846L168.197 8.11531C166.881 8.46581 165.57 8.82786 164.264 9.20134L164.402 9.68207C161.79 10.429 159.197 11.2218 156.625 12.0594L156.47 11.584C155.177 12.0052 153.888 12.4378 152.605 12.8816L152.768 13.3541C150.201 14.242 147.655 15.1749 145.131 16.1518L144.95 15.6855C143.683 16.1762 142.42 16.6779 141.164 17.1907L141.352 17.6536C138.838 18.6797 136.345 19.7498 133.877 20.863L133.671 20.4072C132.433 20.9658 131.2 21.5352 129.973 22.1153L130.187 22.5673C127.732 23.7284 125.301 24.9323 122.896 26.1783L122.666 25.7343C121.46 26.3591 120.26 26.9943 119.067 27.64L119.305 28.0798C116.917 29.372 114.554 30.706 112.219 32.0808L111.966 31.65C110.795 32.3394 109.63 33.0391 108.473 33.7489L108.734 34.1751C106.421 35.594 104.135 37.0533 101.878 38.5522L101.601 38.1357C100.469 38.8876 99.3434 39.6495 98.2254 40.4212L98.5095 40.8327C96.2768 42.3738 94.0735 43.9541 91.9003 45.5725L91.6017 45.1715C90.5112 45.9836 89.4284 46.8052 88.3533 47.6364L88.6591 48.032C86.5131 49.6909 84.3979 51.3877 82.3146 53.1212L81.9948 52.7369C80.95 53.6063 79.9131 54.4849 78.8844 55.3726L79.2111 55.7512C77.1578 57.523 75.1369 59.3313 73.1495 61.1748L72.8094 60.8083C71.8131 61.7324 70.8252 62.6654 69.8458 63.6072L70.1923 63.9676C68.2377 65.8471 66.317 67.7614 64.4312 69.7096L64.0719 69.3619C63.1269 70.3382 62.1906 71.323 61.2632 72.3162L61.6287 72.6574C59.7784 74.639 57.9635 76.6539 56.185 78.7012L55.8075 78.3733C54.9164 79.3991 54.0344 80.4329 53.1617 81.4748L53.545 81.7959C51.8045 83.8737 50.1008 85.9834 48.4351 88.1239L48.0405 87.8168C47.2059 88.8893 46.3808 89.9695 45.5652 91.0573L45.9653 91.3572C44.3398 93.5253 42.7526 95.7237 41.2047 97.9513L40.7941 97.666C40.0189 98.7817 39.2535 99.9046 38.498 101.035L38.9137 101.313C37.4079 103.565 35.9417 105.847 34.5161 108.156L34.0906 107.893C33.3773 109.049 32.6741 110.211 31.9812 111.38L32.4114 111.635C31.0297 113.966 29.6889 116.324 28.3902 118.709L27.9511 118.47C27.302 119.661 26.6634 120.859 26.0354 122.064L26.4787 122.295C25.2261 124.697 24.0157 127.124 22.8484 129.576L22.3969 129.361C21.8136 130.587 21.2411 131.818 20.6794 133.055L21.1347 133.262C20.0153 135.728 18.9391 138.217 17.9072 140.729L17.4447 140.54C16.929 141.795 16.4244 143.056 15.9309 144.323L16.3968 144.504C15.4141 147.026 14.4757 149.571 13.5826 152.136L13.1104 151.972C12.6639 153.254 12.2288 154.541 11.805 155.834L12.2802 155.99C11.4374 158.56 10.6397 161.152 9.88819 163.762L9.4077 163.624C9.03193 164.929 8.66765 166.239 8.31499 167.554L8.79792 167.684C8.09751 170.295 7.44302 172.926 6.83535 175.574L6.34801 175.462C6.04402 176.787 5.75172 178.116 5.47123 179.449L5.96052 179.552C5.40434 182.196 4.89469 184.857 4.43246 187.535L3.93975 187.45C3.70836 188.79 3.48882 190.134 3.28126 191.483L3.77543 191.559C3.36462 194.227 3.00079 196.911 2.68482 199.61L2.18821 199.552C2.03015 200.902 1.88404 202.255 1.74999 203.612L2.24757 203.661C1.98217 206.348 1.76413 209.049 1.59431 211.762L1.09528 211.731C1.0105 213.086 0.937702 214.444 0.877001 215.805L1.3765 215.827C1.25621 218.525 1.18352 221.235 1.15925 223.957L0.659273 223.952C0.653193 224.634 0.650146 225.317 0.650146 226C0.650146 226.683 0.653192 227.366 0.659271 228.048L1.15925 228.043C1.18351 230.765 1.2562 233.475 1.3765 236.172L0.876992 236.195C0.937692 237.556 1.01049 238.914 1.09527 240.269L1.5943 240.237C1.76412 242.951 1.98215 245.652 2.24755 248.338L1.74997 248.388C1.88402 249.745 2.03013 251.098 2.18819 252.448L2.68479 252.39C3.00076 255.089 3.36459 257.773 3.7754 260.441L3.28122 260.517C3.48879 261.865 3.70833 263.21 3.93972 264.55L4.43243 264.465C4.89466 267.142 5.40431 269.804 5.96048 272.448L5.47119 272.551C5.75168 273.884 6.04398 275.213 6.34797 276.538L6.83531 276.426C7.44298 279.074 8.09747 281.704 8.79788 284.316L8.31495 284.445C8.66761 285.76 9.03188 287.071 9.40765 288.376L9.88814 288.238C10.6397 290.848 11.4373 293.439 12.2801 296.01L11.805 296.166C12.2287 297.459 12.6639 298.746 13.1103 300.028L13.5825 299.864C14.4757 302.429 15.4141 304.973 16.3967 307.496L15.9308 307.677C16.4243 308.944 16.929 310.205 17.4447 311.46L17.9072 311.27C18.9391 313.783 20.0152 316.272 21.1347 318.738L20.6794 318.945C21.2411 320.182 21.8136 321.413 22.3969 322.639L22.8483 322.424C24.0156 324.876 25.226 327.303 26.4786 329.705L26.0353 329.936C26.6633 331.141 27.3019 332.339 27.951 333.53L28.3901 333.291C29.6889 335.675 31.0296 338.034 32.4113 340.365L31.9812 340.62C32.6741 341.789 33.3772 342.951 34.0906 344.107L34.516 343.844C35.9416 346.153 37.4078 348.435 38.9136 350.687L38.498 350.965C39.2534 352.095 40.0188 353.218 40.794 354.334L41.2046 354.049C42.7526 356.276 44.3397 358.475 45.9652 360.643L45.5652 360.943C46.3807 362.03 47.2058 363.111 48.0404 364.183L48.435 363.876C50.1008 366.017 51.8044 368.126 53.5449 370.204L53.1616 370.525C54.0344 371.567 54.9164 372.601 55.8075 373.627L56.1849 373.299C57.9634 375.346 59.7783 377.361 61.6286 379.342L61.2632 379.684C62.1905 380.677 63.1268 381.662 64.0718 382.638L64.4311 382.29C66.3169 384.238 68.2376 386.153 70.1923 388.032L69.8457 388.393C70.8251 389.335 71.813 390.268 72.8093 391.192L73.1494 390.825C75.1369 392.669 77.1577 394.477 79.211 396.249L78.8843 396.627C79.9131 397.515 80.9499 398.394 81.9947 399.263L82.3145 398.879C84.3979 400.612 86.513 402.309 88.659 403.968L88.3532 404.364C89.4283 405.195 90.5111 406.016 91.6016 406.828L91.9002 406.427C94.0734 408.046 96.2767 409.626 98.5094 411.167L98.2253 411.579C99.3433 412.35 100.469 413.112 101.601 413.864L101.878 413.448C104.135 414.947 106.421 416.406 108.734 417.825L108.473 418.251C109.63 418.961 110.795 419.661 111.966 420.35L112.219 419.919C114.554 421.294 116.916 422.628 119.305 423.92L119.067 424.36C120.26 425.006 121.46 425.641 122.666 426.266L122.896 425.822C125.301 427.068 127.732 428.272 130.187 429.433L129.973 429.885C131.2 430.465 132.433 431.034 133.671 431.593L133.877 431.137C136.345 432.25 138.837 433.32 141.352 434.346L141.163 434.809C142.42 435.322 143.682 435.824 144.95 436.314L145.131 435.848C147.655 436.825 150.201 437.758 152.768 438.646L152.605 439.118C153.888 439.562 155.177 439.995 156.47 440.416L156.625 439.941C159.197 440.778 161.79 441.571 164.402 442.318L164.264 442.799C165.57 443.172 166.881 443.534 168.197 443.885L168.326 443.402C170.938 444.098 173.569 444.748 176.218 445.352L176.107 445.839C177.432 446.141 178.762 446.432 180.096 446.71L180.198 446.221C182.843 446.774 185.505 447.28 188.183 447.739L188.098 448.232C189.439 448.462 190.783 448.68 192.132 448.886L192.208 448.392C194.876 448.8 197.56 449.162 200.259 449.475L200.201 449.972C201.551 450.129 202.905 450.274 204.262 450.407L204.311 449.91C206.998 450.173 209.699 450.39 212.412 450.559L212.381 451.058C213.736 451.142 215.094 451.214 216.455 451.275L216.478 450.775C219.175 450.895 221.885 450.967 224.607 450.991L224.602 451.491C225.284 451.497 225.967 451.5 226.65 451.5C227.333 451.5 228.016 451.497 228.698 451.491L228.693 450.991C231.415 450.967 234.125 450.895 236.823 450.775L236.845 451.275C238.206 451.214 239.564 451.142 240.919 451.058L240.888 450.559C243.602 450.39 246.302 450.173 248.989 449.91L249.038 450.407C250.395 450.274 251.749 450.129 253.099 449.972L253.041 449.475C255.74 449.162 258.424 448.8 261.093 448.392L261.168 448.886C262.517 448.68 263.861 448.462 265.202 448.232L265.118 447.739C267.796 447.28 270.457 446.774 273.102 446.221L273.204 446.711C274.538 446.432 275.868 446.141 277.193 445.839L277.082 445.352C279.731 444.748 282.362 444.098 284.975 443.402L285.103 443.885C286.419 443.534 287.73 443.172 289.036 442.799L288.898 442.318C291.51 441.571 294.103 440.778 296.675 439.941L296.83 440.416C298.124 439.995 299.412 439.562 300.695 439.118L300.532 438.646C303.099 437.758 305.645 436.825 308.169 435.848L308.35 436.315C309.618 435.824 310.88 435.322 312.137 434.809L311.948 434.346C314.463 433.32 316.955 432.25 319.423 431.137L319.629 431.593C320.868 431.034 322.1 430.465 323.327 429.885L323.113 429.433C325.568 428.272 327.999 427.068 330.404 425.822L330.634 426.266C331.84 425.641 333.04 425.006 334.233 424.36L333.996 423.92C336.384 422.628 338.746 421.294 341.081 419.919L341.335 420.35C342.506 419.661 343.67 418.961 344.827 418.251L344.566 417.825C346.879 416.406 349.165 414.947 351.423 413.448L351.699 413.864C352.832 413.112 353.957 412.35 355.075 411.579L354.791 411.167C357.023 409.626 359.227 408.046 361.4 406.427L361.699 406.829C362.789 406.016 363.872 405.195 364.947 404.364L364.641 403.968C366.787 402.309 368.902 400.612 370.986 398.879L371.305 399.263C372.35 398.394 373.387 397.515 374.416 396.627L374.089 396.249C376.142 394.477 378.163 392.669 380.151 390.825L380.491 391.192C381.487 390.268 382.475 389.335 383.454 388.393L383.108 388.032C385.063 386.153 386.983 384.239 388.869 382.29L389.228 382.638C390.173 381.662 391.11 380.677 392.037 379.684L391.672 379.343C393.522 377.361 395.337 375.346 397.115 373.299L397.493 373.627C398.384 372.601 399.266 371.567 400.139 370.525L399.755 370.204C401.496 368.126 403.199 366.017 404.865 363.876L405.26 364.183C406.094 363.111 406.92 362.031 407.735 360.943L407.335 360.643C408.96 358.475 410.548 356.276 412.096 354.049L412.506 354.334C413.281 353.218 414.047 352.095 414.802 350.965L414.387 350.687C415.892 348.435 417.359 346.153 418.784 343.844L419.21 344.107C419.923 342.951 420.626 341.789 421.319 340.62L420.889 340.365C422.271 338.034 423.611 335.676 424.91 333.291L425.349 333.53C425.998 332.339 426.637 331.141 427.265 329.936L426.822 329.705C428.074 327.303 429.285 324.876 430.452 322.424L430.903 322.639C431.487 321.413 432.059 320.182 432.621 318.945L432.166 318.738C433.285 316.272 434.361 313.783 435.393 311.271L435.856 311.46C436.371 310.205 436.876 308.944 437.369 307.677L436.904 307.496C437.886 304.974 438.825 302.429 439.718 299.864L440.19 300.028C440.636 298.746 441.072 297.459 441.495 296.166L441.02 296.01C441.863 293.44 442.661 290.848 443.412 288.238L443.893 288.376C444.268 287.071 444.633 285.761 444.985 284.446L444.502 284.316C445.203 281.705 445.857 279.074 446.465 276.426L446.952 276.538C447.256 275.213 447.549 273.884 447.829 272.551L447.34 272.448C447.896 269.804 448.406 267.143 448.868 264.465L449.361 264.55C449.592 263.21 449.811 261.866 450.019 260.517L449.525 260.441C449.936 257.773 450.299 255.089 450.615 252.39L451.112 252.448C451.27 251.098 451.416 249.745 451.55 248.388L451.053 248.339C451.318 245.652 451.536 242.951 451.706 240.238L452.205 240.269C452.29 238.914 452.363 237.556 452.423 236.195L451.924 236.173C452.044 233.475 452.117 230.765 452.141 228.043L452.641 228.048C452.647 227.366 452.65 226.683 452.65 226Z" stroke="url(#paint0_linear)" stroke-dasharray="4 8"/>
<defs>
<linearGradient id="paint0_linear" x1="9.26024" y1="131.855" x2="126.937" y2="135.35" gradientUnits="userSpaceOnUse">
<stop stop-color="white"/>
<stop offset="1" stop-color="white" stop-opacity="0"/>
</linearGradient>
</defs>
</svg>
