<svg width="737" height="736" viewBox="0 0 737 736" fill="none" xmlns="http://www.w3.org/2000/svg">
<path d="M736.5 368C736.5 367.328 736.498 366.655 736.495 365.984L735.995 365.986C735.98 363.303 735.937 360.627 735.865 357.958L736.365 357.945C736.329 356.608 736.286 355.274 736.236 353.941L735.736 353.96C735.635 351.287 735.506 348.621 735.348 345.963L735.848 345.933C735.768 344.594 735.681 343.256 735.588 341.921L735.089 341.956C734.902 339.288 734.686 336.628 734.442 333.977L734.94 333.931C734.817 332.602 734.688 331.275 734.551 329.95L734.054 330.001C733.779 327.333 733.476 324.672 733.144 322.021L733.64 321.959C733.474 320.632 733.301 319.306 733.12 317.983L732.625 318.051C732.264 315.403 731.875 312.764 731.458 310.134L731.952 310.056C731.741 308.731 731.524 307.408 731.3 306.088L730.807 306.172C730.359 303.535 729.883 300.907 729.379 298.29L729.87 298.195C729.618 296.885 729.358 295.577 729.092 294.271L728.602 294.371C728.067 291.745 727.503 289.129 726.912 286.524L727.399 286.413C727.103 285.108 726.8 283.806 726.49 282.507L726.003 282.623C725.383 280.024 724.736 277.436 724.061 274.859L724.544 274.732C724.205 273.435 723.858 272.141 723.504 270.85L723.022 270.982C722.316 268.402 721.582 265.834 720.822 263.278L721.301 263.135C720.92 261.856 720.532 260.579 720.138 259.305L719.66 259.452C718.868 256.895 718.049 254.349 717.203 251.815L717.677 251.657C717.254 250.388 716.823 249.122 716.386 247.859L715.913 248.022C715.039 245.498 714.138 242.986 713.211 240.487L713.68 240.313C713.214 239.057 712.741 237.804 712.261 236.554L711.795 236.733C710.837 234.237 709.853 231.754 708.843 229.285L709.305 229.096C708.8 227.859 708.287 226.626 707.768 225.396L707.308 225.591C706.267 223.125 705.201 220.674 704.108 218.236L704.565 218.032C704.018 216.811 703.464 215.594 702.904 214.38L702.45 214.59C701.331 212.164 700.186 209.752 699.016 207.356L699.465 207.136C698.877 205.933 698.283 204.733 697.683 203.537L697.236 203.762C696.037 201.373 694.813 198.999 693.564 196.641L694.006 196.407C693.38 195.226 692.749 194.049 692.111 192.876L691.671 193.115C690.394 190.765 689.091 188.431 687.764 186.113L688.198 185.864C687.533 184.704 686.863 183.547 686.186 182.394L685.755 182.647C684.402 180.343 683.025 178.056 681.624 175.784L682.049 175.522C681.347 174.383 680.638 173.248 679.923 172.117L679.501 172.384C678.073 170.126 676.622 167.884 675.147 165.659L675.563 165.382C674.825 164.268 674.08 163.158 673.33 162.052L672.916 162.333C671.415 160.122 669.89 157.927 668.342 155.75L668.75 155.461C667.974 154.371 667.194 153.285 666.407 152.204L666.003 152.498C664.431 150.338 662.836 148.196 661.219 146.072L661.617 145.769C660.806 144.704 659.99 143.644 659.168 142.589L658.774 142.896C657.133 140.789 655.469 138.699 653.783 136.629L654.171 136.313C653.326 135.276 652.476 134.244 651.621 133.216L651.237 133.536C649.527 131.483 647.796 129.448 646.043 127.433L646.42 127.105C645.543 126.096 644.66 125.092 643.771 124.093L643.397 124.425C641.623 122.429 639.826 120.452 638.009 118.495L638.375 118.155C637.465 117.175 636.55 116.2 635.629 115.23L635.266 115.574C633.427 113.637 631.568 111.719 629.687 109.822L630.042 109.47C629.101 108.521 628.155 107.576 627.203 106.637L626.852 106.992C624.951 105.116 623.03 103.26 621.089 101.425L621.432 101.062C620.46 100.143 619.483 99.2298 618.502 98.3217L618.162 98.6887C616.202 96.8753 614.221 95.083 612.221 93.3122L612.553 92.9379C611.552 92.0514 610.546 91.1703 609.535 90.2947L609.208 90.6726C607.189 88.9236 605.151 87.1963 603.094 85.491L603.413 85.106C602.384 84.2528 601.35 83.405 600.311 82.5628L599.997 82.9512C597.923 81.2694 595.83 79.6098 593.719 77.9726L594.026 77.5775C592.969 76.7578 591.907 75.9438 590.841 75.1354L590.539 75.5338C588.412 73.9207 586.266 72.3302 584.103 70.7626L584.396 70.3577C583.314 69.5733 582.227 68.7946 581.135 68.0216L580.846 68.4296C578.667 66.8859 576.469 65.3653 574.255 63.8681L574.535 63.4539C573.428 62.7056 572.316 61.9631 571.201 61.2266L570.925 61.6438C568.698 60.1729 566.453 58.7256 564.192 57.3023L564.458 56.8791C563.326 56.1665 562.19 55.4598 561.049 54.7592L560.787 55.1852C558.514 53.7884 556.224 52.4155 553.917 51.0671L554.17 50.6355C553.016 49.9607 551.858 49.2921 550.696 48.6296L550.448 49.0639C548.128 47.7409 545.791 46.4423 543.439 45.1687L543.677 44.729C542.503 44.0931 541.325 43.4634 540.143 42.8399L539.91 43.2821C537.549 42.0369 535.174 40.8166 532.783 39.6215L533.007 39.1743C531.81 38.5759 530.609 37.9839 529.405 37.3983L529.186 37.8479C526.788 36.6815 524.375 35.5405 521.947 34.425L522.156 33.9707C520.941 33.4126 519.723 32.8609 518.502 32.3157L518.298 32.7723C515.859 31.6837 513.405 30.6208 510.939 29.5841L511.132 29.1232C509.902 28.6061 508.668 28.0955 507.431 27.5914L507.242 28.0544C504.771 27.0477 502.287 26.067 499.79 25.1128L499.968 24.6457C498.718 24.1679 497.464 23.6968 496.207 23.2323L496.034 23.7013C493.533 22.7774 491.021 21.8799 488.495 21.0091L488.658 20.5364C487.395 20.1007 486.128 19.6718 484.858 19.2495L484.701 19.724C482.166 18.881 479.62 18.065 477.061 17.276L477.208 16.7982C475.934 16.4052 474.656 16.019 473.376 15.6395L473.234 16.1189C470.676 15.361 468.108 14.6301 465.527 13.9266L465.659 13.4442C464.367 13.092 463.072 12.7466 461.775 12.4081L461.649 12.8919C459.071 12.2195 456.483 11.5744 453.884 10.9569L453.999 10.4704C452.7 10.1615 451.397 9.85956 450.092 9.56452L449.982 10.0522C447.376 9.46316 444.76 8.90176 442.133 8.36833L442.233 7.87834C440.927 7.61314 439.619 7.35485 438.308 7.10351L438.214 7.59456C435.596 7.09255 432.968 6.61828 430.331 6.17206L430.414 5.67907C429.094 5.45566 427.771 5.23928 426.446 5.02996L426.368 5.52383C423.738 5.10844 421.099 4.72091 418.451 4.36154L418.518 3.86609C417.195 3.68652 415.869 3.51398 414.542 3.34851L414.48 3.84467C411.828 3.51416 409.168 3.21187 406.499 2.93809L406.55 2.4407C405.226 2.30479 403.899 2.1759 402.57 2.05406L402.524 2.55197C399.872 2.30888 397.212 2.09392 394.545 1.90739L394.58 1.40861C393.244 1.31522 391.906 1.22895 390.567 1.14983L390.537 1.64896C387.879 1.49196 385.213 1.36318 382.54 1.26291L382.559 0.76326C381.226 0.713265 379.892 0.670348 378.556 0.634546L378.542 1.13437C375.873 1.06286 373.197 1.01977 370.514 1.00539L370.516 0.505401C369.845 0.501802 369.173 0.5 368.5 0.5C367.828 0.5 367.155 0.501801 366.484 0.5054L366.486 1.00539C363.803 1.01977 361.127 1.06285 358.458 1.13436L358.445 0.63454C357.108 0.670342 355.774 0.713258 354.441 0.763252L354.46 1.2629C351.787 1.36317 349.121 1.49195 346.463 1.64895L346.433 1.14982C345.094 1.22893 343.756 1.31521 342.421 1.4086L342.455 1.90738C339.788 2.09391 337.128 2.30887 334.476 2.55196L334.431 2.05405C333.102 2.17589 331.775 2.30478 330.45 2.44069L330.501 2.93808C327.832 3.21185 325.172 3.51415 322.52 3.84465L322.458 3.34849C321.131 3.51397 319.805 3.68651 318.482 3.86607L318.549 4.36153C315.901 4.72089 313.262 5.10843 310.632 5.52382L310.554 5.02994C309.229 5.23927 307.906 5.45565 306.586 5.67906L306.669 6.17205C304.032 6.61827 301.404 7.09254 298.786 7.59455L298.692 7.10349C297.381 7.35484 296.073 7.61313 294.767 7.87833L294.867 8.36833C292.241 8.90175 289.624 9.46315 287.019 10.0522L286.908 9.56451C285.603 9.85955 284.301 10.1615 283.001 10.4704L283.116 10.9568C280.517 11.5744 277.929 12.2195 275.351 12.8919L275.225 12.4081C273.928 12.7466 272.633 13.092 271.341 13.4442L271.473 13.9266C268.892 14.6301 266.324 15.361 263.766 16.1189L263.624 15.6395C262.344 16.019 261.066 16.4052 259.792 16.7982L259.939 17.276C257.381 18.0649 254.834 18.881 252.299 19.7239L252.142 19.2495C250.872 19.6718 249.605 20.1007 248.342 20.5364L248.505 21.0091C245.979 21.8799 243.467 22.7774 240.966 23.7013L240.793 23.2323C239.536 23.6968 238.282 24.1679 237.032 24.6457L237.21 25.1128C234.713 26.067 232.229 27.0477 229.758 28.0544L229.569 27.5914C228.332 28.0955 227.098 28.6061 225.868 29.1231L226.061 29.5841C223.595 30.6208 221.141 31.6837 218.702 32.7723L218.499 32.3157C217.277 32.8609 216.059 33.4126 214.844 33.9707L215.053 34.425C212.626 35.5405 210.212 36.6815 207.814 37.8479L207.595 37.3982C206.391 37.9839 205.19 38.5759 203.993 39.1743L204.217 39.6215C201.826 40.8166 199.451 42.0369 197.09 43.2821L196.857 42.8399C195.675 43.4634 194.497 44.0931 193.323 44.729L193.561 45.1686C191.209 46.4423 188.872 47.7408 186.552 49.0639L186.304 48.6296C185.142 49.2921 183.984 49.9607 182.83 50.6355L183.083 51.0671C180.777 52.4155 178.486 53.7884 176.213 55.1852L175.951 54.7592C174.81 55.4598 173.674 56.1665 172.542 56.8791L172.808 57.3023C170.547 58.7256 168.302 60.1729 166.075 61.6438L165.799 61.2266C164.684 61.9631 163.572 62.7056 162.465 63.4539L162.745 63.8681C160.531 65.3653 158.333 66.8859 156.154 68.4297L155.865 68.0216C154.773 68.7946 153.686 69.5733 152.604 70.3577L152.897 70.7626C150.734 72.3302 148.588 73.9207 146.461 75.5338L146.159 75.1354C145.093 75.9438 144.031 76.7578 142.975 77.5775L143.281 77.9726C141.17 79.6098 139.077 81.2694 137.003 82.9511L136.689 82.5628C135.65 83.405 134.616 84.2528 133.587 85.106L133.906 85.491C131.849 87.1963 129.811 88.9237 127.792 90.6726L127.465 90.2947C126.454 91.1704 125.448 92.0514 124.447 92.9379L124.779 93.3122C122.779 95.083 120.798 96.8754 118.838 98.6887L118.498 98.3217C117.517 99.2299 116.54 100.143 115.568 101.062L115.911 101.425C113.97 103.26 112.049 105.116 110.148 106.992L109.797 106.637C108.845 107.576 107.899 108.521 106.958 109.47L107.313 109.822C105.432 111.719 103.573 113.637 101.734 115.574L101.371 115.23C100.45 116.2 99.535 117.175 98.6249 118.155L98.9912 118.495C97.1738 120.452 95.3775 122.429 93.6026 124.425L93.2289 124.093C92.3405 125.092 91.4574 126.096 90.5797 127.105L90.9569 127.433C89.2039 129.448 87.4725 131.483 85.7632 133.536L85.3789 133.216C84.5235 134.244 83.6736 135.276 82.8293 136.313L83.217 136.629C81.5311 138.699 79.8673 140.789 78.226 142.896L77.8315 142.589C77.0098 143.645 76.1937 144.704 75.3833 145.769L75.7811 146.072C74.1637 148.196 72.5689 150.338 70.9972 152.498L70.5929 152.204C69.8063 153.285 69.0255 154.371 68.2505 155.461L68.658 155.75C67.11 157.927 65.5853 160.122 64.0841 162.333L63.6704 162.053C62.9199 163.158 62.1752 164.268 61.4365 165.382L61.8532 165.659C60.3782 167.884 58.9267 170.126 57.4992 172.384L57.0766 172.117C56.3619 173.248 55.6532 174.383 54.9506 175.522L55.3761 175.784C53.975 178.056 52.598 180.343 51.2454 182.647L50.8142 182.394C50.1374 183.547 49.4667 184.704 48.8022 185.864L49.2361 186.113C47.9089 188.431 46.6063 190.765 45.3286 193.115L44.8894 192.876C44.2515 194.049 43.6197 195.226 42.9943 196.407L43.4361 196.641C42.1869 198.999 40.9627 201.373 39.7638 203.762L39.3169 203.537C38.7166 204.733 38.1227 205.933 37.5351 207.136L37.9844 207.356C36.8141 209.752 35.6692 212.164 34.5499 214.59L34.0959 214.38C33.5359 215.594 32.9824 216.811 32.4353 218.032L32.8916 218.236C31.7992 220.674 30.7327 223.125 29.6923 225.591L29.2317 225.396C28.7128 226.626 28.2004 227.859 27.6946 229.096L28.1574 229.285C27.1471 231.754 26.163 234.237 25.2054 236.733L24.7386 236.554C24.2591 237.804 23.7863 239.057 23.3201 240.313L23.7889 240.487C22.8616 242.986 21.9608 245.498 21.0867 248.022L20.6143 247.859C20.177 249.122 19.7465 250.388 19.3227 251.657L19.7969 251.815C18.9509 254.349 18.1317 256.895 17.3398 259.452L16.8622 259.305C16.4677 260.579 16.08 261.856 15.6991 263.135L16.1783 263.278C15.4176 265.834 14.684 268.402 13.9778 270.982L13.4956 270.85C13.142 272.141 12.7953 273.435 12.4556 274.732L12.9392 274.859C12.2642 277.436 11.6166 280.024 10.9966 282.623L10.5102 282.507C10.2002 283.806 9.89703 285.108 9.60084 286.413L10.0884 286.524C9.49706 289.129 8.93344 291.745 8.3979 294.371L7.90798 294.271C7.64175 295.577 7.38244 296.885 7.13011 298.195L7.62109 298.29C7.1171 300.907 6.64097 303.535 6.19299 306.172L5.70006 306.088C5.47577 307.408 5.25852 308.731 5.04838 310.056L5.5422 310.134C5.12512 312.764 4.73601 315.403 4.37518 318.051L3.87976 317.983C3.69948 319.306 3.52625 320.632 3.36011 321.959L3.85623 322.021C3.52441 324.672 3.2209 327.332 2.94602 330.001L2.44865 329.95C2.31217 331.275 2.18274 332.602 2.0604 333.931L2.55829 333.977C2.31422 336.628 2.09838 339.288 1.9111 341.956L1.41232 341.921C1.31855 343.256 1.23193 344.594 1.15249 345.933L1.65162 345.963C1.49397 348.621 1.36466 351.287 1.26398 353.96L0.764333 353.941C0.714135 355.274 0.671043 356.608 0.635095 357.945L1.13491 357.958C1.06311 360.627 1.01985 363.303 1.00542 365.986L0.505423 365.984C0.501809 366.655 0.5 367.327 0.5 368C0.5 368.672 0.501809 369.345 0.505422 370.016L1.00541 370.014C1.01985 372.697 1.06311 375.373 1.13491 378.042L0.635091 378.055C0.671038 379.392 0.71413 380.726 0.764328 382.059L1.26397 382.04C1.36466 384.713 1.49397 387.379 1.65161 390.037L1.15249 390.067C1.23192 391.406 1.31855 392.744 1.41232 394.079L1.91109 394.044C2.09837 396.712 2.31421 399.372 2.55828 402.023L2.06039 402.069C2.18273 403.398 2.31216 404.725 2.44864 406.05L2.94601 405.999C3.22089 408.667 3.5244 411.328 3.85623 413.979L3.3601 414.041C3.52624 415.368 3.69947 416.694 3.87975 418.017L4.37517 417.949C4.736 420.597 5.12512 423.236 5.5422 425.866L5.04837 425.944C5.25852 427.269 5.47576 428.592 5.70005 429.912L6.19299 429.828C6.64097 432.465 7.11711 435.093 7.62109 437.71L7.13011 437.805C7.38244 439.115 7.64175 440.423 7.90799 441.729L8.39791 441.629C8.93345 444.255 9.49707 446.871 10.0884 449.476L9.60085 449.587C9.89704 450.892 10.2002 452.194 10.5102 453.493L10.9966 453.377C11.6166 455.976 12.2642 458.564 12.9392 461.141L12.4556 461.268C12.7953 462.565 13.142 463.859 13.4956 465.15L13.9778 465.018C14.684 467.598 15.4176 470.166 16.1784 472.722L15.6991 472.865C16.08 474.144 16.4677 475.421 16.8622 476.695L17.3398 476.548C18.1317 479.105 18.9509 481.651 19.7969 484.185L19.3227 484.343C19.7465 485.612 20.177 486.878 20.6143 488.141L21.0868 487.978C21.9608 490.502 22.8616 493.014 23.7889 495.513L23.3202 495.687C23.7863 496.943 24.2591 498.196 24.7386 499.446L25.2054 499.267C26.163 501.763 27.1471 504.246 28.1574 506.715L27.6946 506.904C28.2004 508.141 28.7128 509.374 29.2317 510.604L29.6924 510.409C30.7327 512.875 31.7992 515.326 32.8916 517.764L32.4353 517.968C32.9824 519.189 33.5359 520.406 34.0959 521.62L34.5499 521.41C35.6692 523.836 36.8141 526.248 37.9845 528.644L37.5352 528.864C38.1227 530.067 38.7166 531.267 39.3169 532.463L39.7638 532.238C40.9627 534.627 42.1869 537 43.4361 539.359L42.9943 539.593C43.6198 540.774 44.2515 541.951 44.8894 543.124L45.3287 542.885C46.6063 545.235 47.909 547.569 49.2362 549.887L48.8022 550.136C49.4667 551.296 50.1374 552.453 50.8142 553.606L51.2454 553.353C52.598 555.656 53.975 557.944 55.3761 560.216L54.9506 560.478C55.6532 561.617 56.3619 562.752 57.0766 563.883L57.4993 563.616C58.9267 565.875 60.3782 568.116 61.8533 570.341L61.4365 570.618C62.1752 571.732 62.9199 572.842 63.6704 573.948L64.0841 573.667C65.5853 575.878 67.1101 578.073 68.658 580.25L68.2505 580.539C69.0255 581.629 69.8063 582.715 70.5929 583.796L70.9972 583.502C72.5689 585.662 74.1637 587.804 75.7811 589.928L75.3833 590.231C76.1937 591.296 77.0098 592.356 77.8316 593.411L78.2261 593.104C79.8673 595.211 81.5311 597.3 83.2171 599.371L82.8293 599.687C83.6736 600.724 84.5235 601.756 85.3789 602.784L85.7632 602.464C87.4726 604.517 89.2039 606.552 90.9569 608.567L90.5797 608.895C91.4574 609.904 92.3405 610.908 93.229 611.907L93.6026 611.575C95.3775 613.571 97.1738 615.548 98.9913 617.505L98.6249 617.845C99.535 618.825 100.45 619.8 101.371 620.77L101.734 620.426C103.573 622.363 105.432 624.281 107.313 626.178L106.958 626.53C107.899 627.479 108.845 628.424 109.797 629.363L110.148 629.008C112.049 630.884 113.97 632.74 115.911 634.575L115.568 634.938C116.54 635.857 117.517 636.77 118.498 637.678L118.838 637.311C120.798 639.125 122.779 640.917 124.779 642.688L124.447 643.062C125.448 643.949 126.454 644.83 127.465 645.705L127.792 645.327C129.811 647.076 131.849 648.804 133.906 650.509L133.587 650.894C134.616 651.747 135.65 652.595 136.689 653.437L137.003 653.049C139.077 654.731 141.17 656.39 143.281 658.027L142.975 658.422C144.031 659.242 145.093 660.056 146.159 660.865L146.461 660.466C148.588 662.079 150.734 663.67 152.897 665.237L152.604 665.642C153.686 666.427 154.773 667.205 155.865 667.978L156.154 667.57C158.333 669.114 160.531 670.635 162.745 672.132L162.465 672.546C163.572 673.294 164.684 674.037 165.799 674.773L166.075 674.356C168.302 675.827 170.547 677.274 172.808 678.698L172.542 679.121C173.674 679.833 174.81 680.54 175.951 681.241L176.213 680.815C178.486 682.212 180.777 683.584 183.083 684.933L182.83 685.365C183.984 686.039 185.142 686.708 186.304 687.37L186.552 686.936C188.872 688.259 191.209 689.558 193.561 690.831L193.323 691.271C194.497 691.907 195.675 692.537 196.857 693.16L197.09 692.718C199.45 693.963 201.826 695.183 204.217 696.378L203.993 696.826C205.19 697.424 206.391 698.016 207.595 698.602L207.814 698.152C210.212 699.318 212.626 700.46 215.053 701.575L214.844 702.029C216.059 702.587 217.277 703.139 218.498 703.684L218.702 703.228C221.141 704.316 223.595 705.379 226.061 706.416L225.868 706.877C227.098 707.394 228.332 707.905 229.569 708.409L229.758 707.946C232.229 708.952 234.713 709.933 237.21 710.887L237.032 711.354C238.282 711.832 239.536 712.303 240.793 712.768L240.966 712.299C243.467 713.223 245.979 714.12 248.505 714.991L248.342 715.464C249.605 715.899 250.872 716.328 252.142 716.75L252.299 716.276C254.834 717.119 257.38 717.935 259.939 718.724L259.792 719.202C261.066 719.595 262.344 719.981 263.624 720.36L263.766 719.881C266.324 720.639 268.892 721.37 271.473 722.073L271.341 722.556C272.633 722.908 273.928 723.253 275.225 723.592L275.351 723.108C277.929 723.78 280.517 724.426 283.116 725.043L283.001 725.53C284.3 725.838 285.603 726.14 286.908 726.435L287.018 725.948C289.624 726.537 292.24 727.098 294.867 727.632L294.767 728.122C296.073 728.387 297.381 728.645 298.692 728.896L298.786 728.405C301.404 728.907 304.032 729.382 306.669 729.828L306.586 730.321C307.906 730.544 309.229 730.761 310.554 730.97L310.632 730.476C313.262 730.892 315.901 731.279 318.549 731.638L318.482 732.134C319.805 732.313 321.131 732.486 322.458 732.651L322.52 732.155C325.172 732.486 327.832 732.788 330.501 733.062L330.45 733.559C331.774 733.695 333.101 733.824 334.43 733.946L334.476 733.448C337.128 733.691 339.788 733.906 342.455 734.093L342.42 734.591C343.756 734.685 345.094 734.771 346.433 734.85L346.463 734.351C349.121 734.508 351.787 734.637 354.46 734.737L354.441 735.237C355.774 735.287 357.108 735.33 358.444 735.365L358.458 734.866C361.127 734.937 363.803 734.98 366.486 734.995L366.484 735.495C367.155 735.498 367.827 735.5 368.5 735.5C369.172 735.5 369.845 735.498 370.516 735.495L370.514 734.995C373.197 734.98 375.873 734.937 378.542 734.866L378.555 735.365C379.892 735.33 381.226 735.287 382.559 735.237L382.54 734.737C385.213 734.637 387.879 734.508 390.537 734.351L390.567 734.85C391.906 734.771 393.244 734.685 394.579 734.591L394.545 734.093C397.212 733.906 399.872 733.691 402.524 733.448L402.569 733.946C403.898 733.824 405.225 733.695 406.55 733.559L406.499 733.062C409.168 732.788 411.828 732.486 414.48 732.155L414.542 732.651C415.869 732.486 417.195 732.313 418.518 732.134L418.451 731.638C421.099 731.279 423.738 730.892 426.368 730.476L426.446 730.97C427.771 730.761 429.094 730.544 430.414 730.321L430.331 729.828C432.968 729.382 435.596 728.907 438.214 728.405L438.308 728.896C439.619 728.645 440.927 728.387 442.233 728.122L442.133 727.632C444.759 727.098 447.376 726.537 449.981 725.948L450.092 726.435C451.397 726.14 452.699 725.839 453.999 725.53L453.884 725.043C456.483 724.426 459.071 723.78 461.649 723.108L461.775 723.592C463.072 723.253 464.367 722.908 465.659 722.556L465.527 722.073C468.108 721.37 470.676 720.639 473.234 719.881L473.376 720.361C474.656 719.981 475.934 719.595 477.208 719.202L477.061 718.724C479.619 717.935 482.166 717.119 484.701 716.276L484.858 716.75C486.128 716.328 487.395 715.899 488.658 715.464L488.495 714.991C491.021 714.12 493.533 713.223 496.034 712.299L496.207 712.768C497.464 712.303 498.718 711.832 499.968 711.354L499.789 710.887C502.287 709.933 504.771 708.952 507.242 707.946L507.431 708.409C508.668 707.905 509.902 707.394 511.132 706.877L510.939 706.416C513.405 705.379 515.859 704.316 518.298 703.228L518.501 703.684C519.723 703.139 520.941 702.587 522.156 702.029L521.947 701.575C524.374 700.46 526.788 699.318 529.186 698.152L529.405 698.602C530.609 698.016 531.81 697.424 533.007 696.826L532.783 696.378C535.174 695.183 537.549 693.963 539.91 692.718L540.143 693.16C541.325 692.537 542.503 691.907 543.677 691.271L543.439 690.831C545.791 689.558 548.128 688.259 550.448 686.936L550.696 687.37C551.858 686.708 553.016 686.039 554.17 685.365L553.917 684.933C556.224 683.584 558.514 682.212 560.787 680.815L561.049 681.241C562.19 680.54 563.326 679.833 564.458 679.121L564.192 678.698C566.453 677.274 568.698 675.827 570.925 674.356L571.201 674.773C572.316 674.037 573.428 673.294 574.535 672.546L574.255 672.132C576.469 670.635 578.667 669.114 580.846 667.57L581.135 667.978C582.227 667.205 583.314 666.427 584.396 665.642L584.103 665.237C586.266 663.67 588.412 662.079 590.539 660.466L590.841 660.865C591.907 660.056 592.969 659.242 594.026 658.422L593.719 658.027C595.83 656.39 597.923 654.731 599.996 653.049L600.311 653.437C601.35 652.595 602.384 651.747 603.413 650.894L603.094 650.509C605.151 648.804 607.189 647.076 609.208 645.327L609.535 645.705C610.546 644.83 611.552 643.949 612.553 643.062L612.221 642.688C614.221 640.917 616.202 639.125 618.162 637.311L618.502 637.678C619.483 636.77 620.46 635.857 621.432 634.938L621.089 634.575C623.03 632.74 624.951 630.884 626.852 629.008L627.203 629.363C628.155 628.424 629.101 627.479 630.042 626.53L629.687 626.178C631.568 624.281 633.427 622.363 635.266 620.426L635.629 620.77C636.55 619.8 637.465 618.825 638.375 617.845L638.009 617.505C639.826 615.548 641.623 613.571 643.397 611.575L643.771 611.907C644.66 610.908 645.543 609.904 646.42 608.895L646.043 608.567C647.796 606.552 649.527 604.517 651.237 602.464L651.621 602.784C652.477 601.756 653.326 600.724 654.171 599.687L653.783 599.371C655.469 597.3 657.133 595.211 658.774 593.104L659.168 593.411C659.99 592.355 660.806 591.296 661.617 590.231L661.219 589.928C662.836 587.804 664.431 585.662 666.003 583.502L666.407 583.796C667.194 582.715 667.974 581.629 668.75 580.539L668.342 580.25C669.89 578.073 671.415 575.878 672.916 573.667L673.33 573.948C674.08 572.842 674.825 571.732 675.563 570.618L675.147 570.341C676.622 568.116 678.073 565.874 679.501 563.616L679.923 563.883C680.638 562.752 681.347 561.617 682.049 560.478L681.624 560.216C683.025 557.944 684.402 555.656 685.755 553.353L686.186 553.606C686.863 552.453 687.533 551.296 688.198 550.136L687.764 549.887C689.091 547.569 690.394 545.235 691.671 542.885L692.111 543.124C692.749 541.951 693.38 540.774 694.006 539.593L693.564 539.359C694.813 537 696.037 534.627 697.236 532.238L697.683 532.463C698.283 531.267 698.877 530.067 699.465 528.864L699.016 528.644C700.186 526.248 701.331 523.836 702.45 521.41L702.904 521.62C703.464 520.406 704.018 519.189 704.565 517.968L704.108 517.764C705.201 515.326 706.267 512.875 707.308 510.409L707.768 510.604C708.287 509.374 708.8 508.141 709.305 506.904L708.843 506.715C709.853 504.246 710.837 501.763 711.795 499.267L712.261 499.446C712.741 498.196 713.214 496.943 713.68 495.687L713.211 495.513C714.138 493.014 715.039 490.502 715.913 487.978L716.386 488.141C716.823 486.878 717.254 485.612 717.677 484.343L717.203 484.185C718.049 481.651 718.868 479.105 719.66 476.548L720.138 476.695C720.532 475.421 720.92 474.144 721.301 472.865L720.822 472.722C721.582 470.166 722.316 467.598 723.022 465.018L723.504 465.15C723.858 463.859 724.205 462.565 724.544 461.268L724.061 461.141C724.736 458.564 725.383 455.976 726.003 453.377L726.49 453.493C726.8 452.194 727.103 450.892 727.399 449.587L726.912 449.476C727.503 446.871 728.067 444.255 728.602 441.629L729.092 441.729C729.358 440.423 729.618 439.115 729.87 437.805L729.379 437.71C729.883 435.093 730.359 432.465 730.807 429.828L731.3 429.912C731.524 428.592 731.741 427.269 731.952 425.944L731.458 425.866C731.875 423.236 732.264 420.597 732.625 417.949L733.12 418.017C733.301 416.694 733.474 415.368 733.64 414.041L733.144 413.979C733.476 411.328 733.779 408.668 734.054 405.999L734.551 406.05C734.688 404.725 734.817 403.398 734.94 402.069L734.442 402.023C734.686 399.372 734.902 396.712 735.089 394.044L735.588 394.079C735.681 392.744 735.768 391.406 735.848 390.067L735.348 390.037C735.506 387.379 735.635 384.713 735.736 382.04L736.236 382.059C736.286 380.726 736.329 379.392 736.365 378.055L735.865 378.042C735.937 375.373 735.98 372.697 735.995 370.014L736.495 370.016C736.498 369.345 736.5 368.673 736.5 368Z" stroke="url(#paint0_linear)" stroke-dasharray="4 8"/>
<defs>
<linearGradient id="paint0_linear" x1="14.2171" y1="214.439" x2="205.996" y2="220.131" gradientUnits="userSpaceOnUse">
<stop stop-color="white"/>
<stop offset="1" stop-color="white" stop-opacity="0"/>
</linearGradient>
</defs>
</svg>
